<svg class="svg-icon" style="width: 1em;height: 1em;vertical-align: middle;fill: currentColor;overflow: hidden;" viewBox="0 0 1024 1024" version="1.1" xmlns="http://www.w3.org/2000/svg"><path d="M490.666667 810.666667a318.506667 318.506667 0 0 1-171.946667-50.090667l42.88 128.682667a21.333333 21.333333 0 1 1-40.490667 13.482666L256.426667 708.693333A318.890667 318.890667 0 0 1 170.666667 490.666667c0-84.224 32.554667-160.853333 85.76-217.984l64.64-194.090667a21.333333 21.333333 0 1 1 40.533333 13.482667L318.634667 220.757333A318.506667 318.506667 0 0 1 490.666667 170.666667c63.317333 0 122.325333 18.346667 171.989333 50.090666l-42.922667-128.682666a21.333333 21.333333 0 0 1 40.490667-13.525334l64.725333 194.133334A318.890667 318.890667 0 0 1 810.666667 490.666667c0 84.224-32.554667 160.853333-85.76 218.026666l-64.682667 194.048a21.333333 21.333333 0 0 1-40.490667-13.482666l42.922667-128.682667A318.506667 318.506667 0 0 1 490.666667 810.666667z m201.514666-129.450667A276.394667 276.394667 0 0 0 768 490.666667a276.394667 276.394667 0 0 0-75.52-190.208 21.248 21.248 0 0 1-3.072-3.242667A276.48 276.48 0 0 0 490.666667 213.333333a276.48 276.48 0 0 0-201.642667 86.912A276.394667 276.394667 0 0 0 213.333333 490.666667a276.394667 276.394667 0 0 0 78.506667 193.322666A276.48 276.48 0 0 0 490.666667 768a276.48 276.48 0 0 0 201.514666-86.784zM512 469.333333h106.666667a21.333333 21.333333 0 1 1 0 42.666667h-128a21.333333 21.333333 0 0 1-21.333334-21.333333v-213.333334a21.333333 21.333333 0 1 1 42.666667 0V469.333333z m341.333333-64a21.333333 21.333333 0 1 1 42.666667 0v170.666667a21.333333 21.333333 0 1 1-42.666667 0v-170.666667z" fill="#000000" /></svg>