<svg class="svg-icon" style="width: 1em; height: 1em;vertical-align: middle;fill: currentColor;overflow: hidden;" viewBox="0 0 1024 1024" version="1.1" xmlns="http://www.w3.org/2000/svg"><path d="M940.4 739.1l-291-99.3c-14.7-5-27.4-15-35.8-28.1l-217.1-339c-17.2-26.8-44.9-46-76.1-52.7l-180.8-38.5c-4.8-1-9.7-1.5-14.6-1.5-38.6 0-70 31.4-70 70v555.9c0 27.6 22.4 50 50 50h36.6c24.1 0 44.8-17.2 49.2-40.9l33.1-178.2c0.6-3.2 2-6.2 4-8.8 3.3-4.2 8.1-6.8 13.4-7.5 5.3-0.6 10.5 0.9 14.7 4.2L515.4 830c21.1 16.7 47.5 25.9 74.4 25.9H921c25.7 0 48.5-16.3 56.8-40.6 10.7-31.3-6.1-65.5-37.4-76.2z m-0.5 63.3c-2.8 8.1-10.4 13.5-18.9 13.5H589.9c-17.9 0-35.6-6.1-49.6-17.3L280.7 593.4c-10.7-8.5-23.7-12.9-37.1-12.9-2.3 0-4.7 0.1-7.1 0.4-15.9 1.9-30.2 9.8-40.1 22.4-6 7.6-10.2 16.7-11.9 26.3l-33.1 178.2c-0.9 4.7-5 8.2-9.8 8.2H105c-5.5 0-10-4.5-10-10V250c0-16.5 13.5-30 30-30 2.1 0 4.2 0.2 6.2 0.7l131.8 28v132.9c0 11 9 20 20 20s20-9 20-20V257.2l9.1 1.9c20.8 4.4 39.3 17.2 50.7 35.1l217.1 339c13.2 20.7 33.3 36.4 56.6 44.4l291 99.3c10.4 3.6 16 15 12.4 25.5z"  /></svg>